<mxfile host="Electron" agent="Mozilla/5.0 (X11; Linux x86_64) AppleWebKit/537.36 (KHTML, like Gecko) draw.io/27.0.9 Chrome/134.0.6998.205 Electron/35.6.0 Safari/537.36" version="27.0.9">
  <diagram name="Page-1" id="r6mv-huth-j_T5dcRZXc">
    <mxGraphModel dx="2377" dy="1475" grid="1" gridSize="10" guides="1" tooltips="1" connect="1" arrows="1" fold="1" page="1" pageScale="1" pageWidth="350" pageHeight="70" math="0" shadow="0">
      <root>
        <mxCell id="0" />
        <mxCell id="1" parent="0" />
        <mxCell id="P9SKCXnRvYGnvvP028wO-3" value="" style="edgeStyle=orthogonalEdgeStyle;rounded=0;orthogonalLoop=1;jettySize=auto;html=1;orthogonal=1;curved=1;noEdgeStyle=1;" parent="1" source="P9SKCXnRvYGnvvP028wO-1" target="P9SKCXnRvYGnvvP028wO-2" edge="1">
          <mxGeometry relative="1" as="geometry">
            <Array as="points">
              <mxPoint x="272.5" y="72" />
              <mxPoint x="225" y="148" />
            </Array>
          </mxGeometry>
        </mxCell>
        <mxCell id="P9SKCXnRvYGnvvP028wO-5" style="edgeStyle=orthogonalEdgeStyle;rounded=0;orthogonalLoop=1;jettySize=auto;html=1;entryX=0.5;entryY=0;entryDx=0;entryDy=0;orthogonal=1;curved=1;noEdgeStyle=1;" parent="1" source="P9SKCXnRvYGnvvP028wO-1" target="P9SKCXnRvYGnvvP028wO-6" edge="1">
          <mxGeometry relative="1" as="geometry">
            <mxPoint x="210" y="160" as="targetPoint" />
            <Array as="points">
              <mxPoint x="327.5" y="72" />
              <mxPoint x="375" y="148" />
            </Array>
          </mxGeometry>
        </mxCell>
        <mxCell id="P9SKCXnRvYGnvvP028wO-1" value="root" style="whiteSpace=wrap;html=1;" parent="1" vertex="1">
          <mxGeometry x="240" width="120" height="60" as="geometry" />
        </mxCell>
        <mxCell id="P9SKCXnRvYGnvvP028wO-8" value="" style="edgeStyle=orthogonalEdgeStyle;rounded=0;orthogonalLoop=1;jettySize=auto;html=1;orthogonal=1;curved=1;noEdgeStyle=1;" parent="1" source="P9SKCXnRvYGnvvP028wO-2" target="P9SKCXnRvYGnvvP028wO-7" edge="1">
          <mxGeometry relative="1" as="geometry">
            <Array as="points">
              <mxPoint x="225" y="232" />
              <mxPoint x="150" y="270" />
              <mxPoint x="150" y="430" />
              <mxPoint x="150" y="468" />
            </Array>
          </mxGeometry>
        </mxCell>
        <mxCell id="P9SKCXnRvYGnvvP028wO-2" value="checksums invalid" style="whiteSpace=wrap;html=1;" parent="1" vertex="1">
          <mxGeometry x="165" y="160" width="120" height="60" as="geometry" />
        </mxCell>
        <mxCell id="P9SKCXnRvYGnvvP028wO-14" value="" style="edgeStyle=orthogonalEdgeStyle;rounded=0;orthogonalLoop=1;jettySize=auto;html=1;orthogonal=1;curved=1;noEdgeStyle=1;" parent="1" source="P9SKCXnRvYGnvvP028wO-6" target="P9SKCXnRvYGnvvP028wO-13" edge="1">
          <mxGeometry relative="1" as="geometry">
            <Array as="points">
              <mxPoint x="347.5" y="232" />
              <mxPoint x="240" y="308" />
            </Array>
          </mxGeometry>
        </mxCell>
        <mxCell id="P9SKCXnRvYGnvvP028wO-16" style="edgeStyle=orthogonalEdgeStyle;rounded=0;orthogonalLoop=1;jettySize=auto;html=1;orthogonal=1;curved=1;noEdgeStyle=1;" parent="1" source="P9SKCXnRvYGnvvP028wO-6" target="P9SKCXnRvYGnvvP028wO-15" edge="1">
          <mxGeometry relative="1" as="geometry">
            <Array as="points">
              <mxPoint x="402.5" y="232" />
              <mxPoint x="390" y="308" />
            </Array>
          </mxGeometry>
        </mxCell>
        <mxCell id="P9SKCXnRvYGnvvP028wO-6" value="checksums valid" style="whiteSpace=wrap;html=1;" parent="1" vertex="1">
          <mxGeometry x="315" y="160" width="120" height="60" as="geometry" />
        </mxCell>
        <mxCell id="P9SKCXnRvYGnvvP028wO-10" value="" style="edgeStyle=orthogonalEdgeStyle;rounded=0;orthogonalLoop=1;jettySize=auto;html=1;orthogonal=1;curved=1;noEdgeStyle=1;" parent="1" source="P9SKCXnRvYGnvvP028wO-7" target="P9SKCXnRvYGnvvP028wO-9" edge="1">
          <mxGeometry relative="1" as="geometry">
            <Array as="points">
              <mxPoint x="150" y="552" />
              <mxPoint x="197.5" y="628" />
            </Array>
          </mxGeometry>
        </mxCell>
        <mxCell id="P9SKCXnRvYGnvvP028wO-7" value="count" style="whiteSpace=wrap;html=1;" parent="1" vertex="1">
          <mxGeometry x="90" y="480" width="120" height="60" as="geometry" />
        </mxCell>
        <mxCell id="P9SKCXnRvYGnvvP028wO-12" value="" style="edgeStyle=orthogonalEdgeStyle;rounded=0;orthogonalLoop=1;jettySize=auto;html=1;orthogonal=1;curved=1;noEdgeStyle=1;" parent="1" source="P9SKCXnRvYGnvvP028wO-9" target="P9SKCXnRvYGnvvP028wO-11" edge="1">
          <mxGeometry relative="1" as="geometry">
            <Array as="points">
              <mxPoint x="225" y="712" />
              <mxPoint x="225" y="788" />
            </Array>
          </mxGeometry>
        </mxCell>
        <mxCell id="P9SKCXnRvYGnvvP028wO-9" value="sample" style="whiteSpace=wrap;html=1;" parent="1" vertex="1">
          <mxGeometry x="165" y="640" width="120" height="60" as="geometry" />
        </mxCell>
        <mxCell id="P9SKCXnRvYGnvvP028wO-11" value="drop" style="whiteSpace=wrap;html=1;" parent="1" vertex="1">
          <mxGeometry x="165" y="800" width="120" height="60" as="geometry" />
        </mxCell>
        <mxCell id="P9SKCXnRvYGnvvP028wO-18" value="" style="edgeStyle=orthogonalEdgeStyle;rounded=0;orthogonalLoop=1;jettySize=auto;html=1;orthogonal=1;curved=1;noEdgeStyle=1;" parent="1" source="P9SKCXnRvYGnvvP028wO-13" target="P9SKCXnRvYGnvvP028wO-17" edge="1">
          <mxGeometry relative="1" as="geometry">
            <Array as="points">
              <mxPoint x="212.5" y="392" />
              <mxPoint x="300" y="468" />
            </Array>
          </mxGeometry>
        </mxCell>
        <mxCell id="P9SKCXnRvYGnvvP028wO-21" style="edgeStyle=orthogonalEdgeStyle;rounded=0;orthogonalLoop=1;jettySize=auto;html=1;entryX=0.5;entryY=0;entryDx=0;entryDy=0;orthogonal=1;curved=1;noEdgeStyle=1;" parent="1" source="P9SKCXnRvYGnvvP028wO-13" target="P9SKCXnRvYGnvvP028wO-19" edge="1">
          <mxGeometry relative="1" as="geometry">
            <Array as="points">
              <mxPoint x="267.5" y="392" />
              <mxPoint x="450" y="468" />
            </Array>
          </mxGeometry>
        </mxCell>
        <mxCell id="P9SKCXnRvYGnvvP028wO-13" value="vpc lookup" style="whiteSpace=wrap;html=1;" parent="1" vertex="1">
          <mxGeometry x="180" y="320" width="120" height="60" as="geometry" />
        </mxCell>
        <mxCell id="P9SKCXnRvYGnvvP028wO-15" value="control" style="whiteSpace=wrap;html=1;" parent="1" vertex="1">
          <mxGeometry x="330" y="320" width="120" height="60" as="geometry" />
        </mxCell>
        <mxCell id="P9SKCXnRvYGnvvP028wO-20" style="edgeStyle=orthogonalEdgeStyle;rounded=0;orthogonalLoop=1;jettySize=auto;html=1;entryX=0.5;entryY=0;entryDx=0;entryDy=0;orthogonal=1;curved=1;noEdgeStyle=1;" parent="1" source="P9SKCXnRvYGnvvP028wO-17" target="P9SKCXnRvYGnvvP028wO-9" edge="1">
          <mxGeometry relative="1" as="geometry">
            <Array as="points">
              <mxPoint x="300" y="552" />
              <mxPoint x="252.5" y="628" />
            </Array>
          </mxGeometry>
        </mxCell>
        <mxCell id="P9SKCXnRvYGnvvP028wO-17" value="vpc miss" style="whiteSpace=wrap;html=1;" parent="1" vertex="1">
          <mxGeometry x="240" y="480" width="120" height="60" as="geometry" />
        </mxCell>
        <mxCell id="P9SKCXnRvYGnvvP028wO-23" value="" style="edgeStyle=orthogonalEdgeStyle;rounded=0;orthogonalLoop=1;jettySize=auto;html=1;orthogonal=1;curved=1;noEdgeStyle=1;" parent="1" source="P9SKCXnRvYGnvvP028wO-19" target="P9SKCXnRvYGnvvP028wO-22" edge="1">
          <mxGeometry relative="1" as="geometry">
            <Array as="points">
              <mxPoint x="450" y="552" />
              <mxPoint x="413.671875" y="628" />
            </Array>
          </mxGeometry>
        </mxCell>
        <mxCell id="P9SKCXnRvYGnvvP028wO-19" value="vpc match" style="whiteSpace=wrap;html=1;" parent="1" vertex="1">
          <mxGeometry x="390" y="480" width="120" height="60" as="geometry" />
        </mxCell>
        <mxCell id="P9SKCXnRvYGnvvP028wO-25" value="" style="edgeStyle=orthogonalEdgeStyle;rounded=0;orthogonalLoop=1;jettySize=auto;html=1;orthogonal=1;curved=1;noEdgeStyle=1;" parent="1" source="P9SKCXnRvYGnvvP028wO-22" target="P9SKCXnRvYGnvvP028wO-24" edge="1">
          <mxGeometry relative="1" as="geometry">
            <Array as="points">
              <mxPoint x="413.671875" y="712" />
              <mxPoint x="378.80859375" y="788" />
            </Array>
          </mxGeometry>
        </mxCell>
        <mxCell id="P9SKCXnRvYGnvvP028wO-22" value="mark frame" style="whiteSpace=wrap;html=1;" parent="1" vertex="1">
          <mxGeometry x="353.671875" y="640" width="120" height="60" as="geometry" />
        </mxCell>
        <mxCell id="P9SKCXnRvYGnvvP028wO-27" value="" style="edgeStyle=orthogonalEdgeStyle;rounded=0;orthogonalLoop=1;jettySize=auto;html=1;orthogonal=1;curved=1;noEdgeStyle=1;" parent="1" source="P9SKCXnRvYGnvvP028wO-24" target="P9SKCXnRvYGnvvP028wO-26" edge="1">
          <mxGeometry relative="1" as="geometry">
            <Array as="points">
              <mxPoint x="378.80859375" y="872" />
              <mxPoint x="343.9453125" y="948" />
            </Array>
          </mxGeometry>
        </mxCell>
        <mxCell id="P9SKCXnRvYGnvvP028wO-24" value="decapsulate" style="whiteSpace=wrap;html=1;" parent="1" vertex="1">
          <mxGeometry x="318.80859375" y="800" width="120" height="60" as="geometry" />
        </mxCell>
        <mxCell id="P9SKCXnRvYGnvvP028wO-29" value="" style="edgeStyle=orthogonalEdgeStyle;rounded=0;orthogonalLoop=1;jettySize=auto;html=1;orthogonal=1;curved=1;noEdgeStyle=1;" parent="1" source="P9SKCXnRvYGnvvP028wO-26" target="P9SKCXnRvYGnvvP028wO-28" edge="1">
          <mxGeometry relative="1" as="geometry">
            <Array as="points">
              <mxPoint x="343.9453125" y="1032" />
              <mxPoint x="310.546875" y="1108" />
            </Array>
          </mxGeometry>
        </mxCell>
        <mxCell id="P9SKCXnRvYGnvvP028wO-26" value="count" style="whiteSpace=wrap;html=1;" parent="1" vertex="1">
          <mxGeometry x="283.9453125" y="960" width="120" height="60" as="geometry" />
        </mxCell>
        <mxCell id="P9SKCXnRvYGnvvP028wO-31" value="" style="edgeStyle=orthogonalEdgeStyle;rounded=0;orthogonalLoop=1;jettySize=auto;html=1;orthogonal=1;curved=1;noEdgeStyle=1;" parent="1" source="P9SKCXnRvYGnvvP028wO-28" target="P9SKCXnRvYGnvvP028wO-30" edge="1">
          <mxGeometry relative="1" as="geometry">
            <Array as="points">
              <mxPoint x="273.8802083333333" y="1192" />
              <mxPoint x="150" y="1268" />
            </Array>
          </mxGeometry>
        </mxCell>
        <mxCell id="P9SKCXnRvYGnvvP028wO-35" style="edgeStyle=orthogonalEdgeStyle;rounded=0;orthogonalLoop=1;jettySize=auto;html=1;entryX=0.5;entryY=0;entryDx=0;entryDy=0;orthogonal=1;curved=1;noEdgeStyle=1;" parent="1" source="P9SKCXnRvYGnvvP028wO-28" target="P9SKCXnRvYGnvvP028wO-33" edge="1">
          <mxGeometry relative="1" as="geometry">
            <Array as="points">
              <mxPoint x="310.546875" y="1194" />
              <mxPoint x="300" y="1268" />
            </Array>
          </mxGeometry>
        </mxCell>
        <mxCell id="P9SKCXnRvYGnvvP028wO-36" style="edgeStyle=orthogonalEdgeStyle;rounded=0;orthogonalLoop=1;jettySize=auto;html=1;orthogonal=1;curved=1;noEdgeStyle=1;" parent="1" source="P9SKCXnRvYGnvvP028wO-28" target="P9SKCXnRvYGnvvP028wO-34" edge="1">
          <mxGeometry relative="1" as="geometry">
            <Array as="points">
              <mxPoint x="347.2135416666667" y="1192" />
              <mxPoint x="450" y="1268" />
            </Array>
          </mxGeometry>
        </mxCell>
        <mxCell id="P9SKCXnRvYGnvvP028wO-28" value="meter" style="whiteSpace=wrap;html=1;" parent="1" vertex="1">
          <mxGeometry x="250.546875" y="1120" width="120" height="60" as="geometry" />
        </mxCell>
        <mxCell id="P9SKCXnRvYGnvvP028wO-58" style="edgeStyle=orthogonalEdgeStyle;rounded=0;orthogonalLoop=1;jettySize=auto;html=1;entryX=0.5;entryY=0;entryDx=0;entryDy=0;orthogonal=1;curved=1;noEdgeStyle=1;" parent="1" source="P9SKCXnRvYGnvvP028wO-30" target="P9SKCXnRvYGnvvP028wO-54" edge="1">
          <mxGeometry relative="1" as="geometry">
            <Array as="points">
              <mxPoint x="136.25" y="1354" />
              <mxPoint x="62.5" y="1428" />
            </Array>
          </mxGeometry>
        </mxCell>
        <mxCell id="P9SKCXnRvYGnvvP028wO-59" style="edgeStyle=orthogonalEdgeStyle;rounded=0;orthogonalLoop=1;jettySize=auto;html=1;entryX=0.5;entryY=0;entryDx=0;entryDy=0;orthogonal=1;curved=1;noEdgeStyle=1;" parent="1" source="P9SKCXnRvYGnvvP028wO-30" target="P9SKCXnRvYGnvvP028wO-55" edge="1">
          <mxGeometry relative="1" as="geometry">
            <Array as="points">
              <mxPoint x="163.75" y="1354" />
              <mxPoint x="212.5" y="1428" />
            </Array>
          </mxGeometry>
        </mxCell>
        <mxCell id="P9SKCXnRvYGnvvP028wO-60" style="edgeStyle=orthogonalEdgeStyle;rounded=0;orthogonalLoop=1;jettySize=auto;html=1;orthogonal=1;curved=1;noEdgeStyle=1;" parent="1" source="P9SKCXnRvYGnvvP028wO-30" target="P9SKCXnRvYGnvvP028wO-56" edge="1">
          <mxGeometry relative="1" as="geometry">
            <Array as="points">
              <mxPoint x="191.25" y="1352" />
              <mxPoint x="362.5" y="1428" />
            </Array>
          </mxGeometry>
        </mxCell>
        <mxCell id="P9SKCXnRvYGnvvP028wO-61" style="edgeStyle=orthogonalEdgeStyle;rounded=0;orthogonalLoop=1;jettySize=auto;html=1;orthogonal=1;curved=1;noEdgeStyle=1;" parent="1" source="P9SKCXnRvYGnvvP028wO-30" target="P9SKCXnRvYGnvvP028wO-57" edge="1">
          <mxGeometry relative="1" as="geometry">
            <Array as="points">
              <mxPoint x="108.75" y="1352" />
              <mxPoint y="1390" />
              <mxPoint y="1550" />
              <mxPoint x="105" y="1588" />
            </Array>
          </mxGeometry>
        </mxCell>
        <mxCell id="P9SKCXnRvYGnvvP028wO-30" value="ipv4" style="whiteSpace=wrap;html=1;" parent="1" vertex="1">
          <mxGeometry x="90" y="1280" width="120" height="60" as="geometry" />
        </mxCell>
        <mxCell id="P9SKCXnRvYGnvvP028wO-70" style="edgeStyle=orthogonalEdgeStyle;rounded=0;orthogonalLoop=1;jettySize=auto;html=1;orthogonal=1;curved=1;noEdgeStyle=1;" parent="1" source="P9SKCXnRvYGnvvP028wO-33" target="P9SKCXnRvYGnvvP028wO-54" edge="1">
          <mxGeometry relative="1" as="geometry">
            <Array as="points">
              <mxPoint x="263.3333333333333" y="1352" />
              <mxPoint x="117.5" y="1428" />
            </Array>
          </mxGeometry>
        </mxCell>
        <mxCell id="P9SKCXnRvYGnvvP028wO-71" style="edgeStyle=orthogonalEdgeStyle;rounded=0;orthogonalLoop=1;jettySize=auto;html=1;entryX=0.5;entryY=0;entryDx=0;entryDy=0;orthogonal=1;curved=1;noEdgeStyle=1;" parent="1" source="P9SKCXnRvYGnvvP028wO-33" target="P9SKCXnRvYGnvvP028wO-55" edge="1">
          <mxGeometry relative="1" as="geometry">
            <Array as="points">
              <mxPoint x="300" y="1354" />
              <mxPoint x="267.5" y="1428" />
            </Array>
          </mxGeometry>
        </mxCell>
        <mxCell id="P9SKCXnRvYGnvvP028wO-72" style="edgeStyle=orthogonalEdgeStyle;rounded=0;orthogonalLoop=1;jettySize=auto;html=1;orthogonal=1;curved=1;noEdgeStyle=1;" parent="1" source="P9SKCXnRvYGnvvP028wO-33" target="P9SKCXnRvYGnvvP028wO-56" edge="1">
          <mxGeometry relative="1" as="geometry">
            <Array as="points">
              <mxPoint x="336.6666666666667" y="1352" />
              <mxPoint x="417.5" y="1428" />
            </Array>
          </mxGeometry>
        </mxCell>
        <mxCell id="P9SKCXnRvYGnvvP028wO-33" value="ipv6" style="whiteSpace=wrap;html=1;" parent="1" vertex="1">
          <mxGeometry x="240" y="1280" width="120" height="60" as="geometry" />
        </mxCell>
        <mxCell id="P9SKCXnRvYGnvvP028wO-38" value="" style="edgeStyle=orthogonalEdgeStyle;rounded=0;orthogonalLoop=1;jettySize=auto;html=1;orthogonal=1;curved=1;noEdgeStyle=1;" parent="1" source="P9SKCXnRvYGnvvP028wO-34" target="P9SKCXnRvYGnvvP028wO-37" edge="1">
          <mxGeometry relative="1" as="geometry">
            <Array as="points">
              <mxPoint x="450" y="1352" />
              <mxPoint x="540" y="1428" />
            </Array>
          </mxGeometry>
        </mxCell>
        <mxCell id="P9SKCXnRvYGnvvP028wO-34" value="other" style="whiteSpace=wrap;html=1;" parent="1" vertex="1">
          <mxGeometry x="390" y="1280" width="120" height="60" as="geometry" />
        </mxCell>
        <mxCell id="P9SKCXnRvYGnvvP028wO-40" value="" style="edgeStyle=orthogonalEdgeStyle;rounded=0;orthogonalLoop=1;jettySize=auto;html=1;orthogonal=1;entryX=0.5;entryY=0;entryDx=0;entryDy=0;curved=1;noEdgeStyle=1;" parent="1" source="P9SKCXnRvYGnvvP028wO-37" target="P9SKCXnRvYGnvvP028wO-52" edge="1">
          <mxGeometry relative="1" as="geometry">
            <Array as="points">
              <mxPoint x="540" y="1512" />
              <mxPoint x="538.59375" y="1588" />
            </Array>
          </mxGeometry>
        </mxCell>
        <mxCell id="P9SKCXnRvYGnvvP028wO-37" value="meter" style="whiteSpace=wrap;html=1;" parent="1" vertex="1">
          <mxGeometry x="480" y="1440" width="120" height="60" as="geometry" />
        </mxCell>
        <mxCell id="P9SKCXnRvYGnvvP028wO-39" value="trap / queue to tap device" style="whiteSpace=wrap;html=1;" parent="1" vertex="1">
          <mxGeometry x="478.59375" y="1760" width="120" height="60" as="geometry" />
        </mxCell>
        <mxCell id="P9SKCXnRvYGnvvP028wO-46" style="edgeStyle=orthogonalEdgeStyle;rounded=0;orthogonalLoop=1;jettySize=auto;html=1;orthogonal=1;curved=1;noEdgeStyle=1;" parent="1" source="P9SKCXnRvYGnvvP028wO-41" target="P9SKCXnRvYGnvvP028wO-44" edge="1">
          <mxGeometry relative="1" as="geometry">
            <Array as="points">
              <mxPoint x="285" y="1672" />
              <mxPoint x="284.08067491319446" y="1744" />
            </Array>
          </mxGeometry>
        </mxCell>
        <mxCell id="P9SKCXnRvYGnvvP028wO-41" value="NAT (pre routing)&lt;div&gt;(44, 66, 64, 46)&lt;/div&gt;" style="whiteSpace=wrap;html=1;" parent="1" vertex="1">
          <mxGeometry x="225" y="1600" width="120" height="60" as="geometry" />
        </mxCell>
        <mxCell id="P9SKCXnRvYGnvvP028wO-47" style="edgeStyle=orthogonalEdgeStyle;rounded=0;orthogonalLoop=1;jettySize=auto;html=1;orthogonal=1;curved=1;noEdgeStyle=1;" parent="1" source="P9SKCXnRvYGnvvP028wO-44" target="P9SKCXnRvYGnvvP028wO-45" edge="1">
          <mxGeometry relative="1" as="geometry">
            <Array as="points">
              <mxPoint x="284.08067491319446" y="1832" />
              <mxPoint x="280.88514539930554" y="1908" />
            </Array>
          </mxGeometry>
        </mxCell>
        <mxCell id="P9SKCXnRvYGnvvP028wO-44" value="Routing" style="whiteSpace=wrap;html=1;" parent="1" vertex="1">
          <mxGeometry x="224.08067491319446" y="1760" width="120" height="60" as="geometry" />
        </mxCell>
        <mxCell id="P9SKCXnRvYGnvvP028wO-74" style="edgeStyle=orthogonalEdgeStyle;rounded=0;orthogonalLoop=1;jettySize=auto;html=1;orthogonal=1;curved=1;noEdgeStyle=1;" parent="1" source="P9SKCXnRvYGnvvP028wO-45" target="P9SKCXnRvYGnvvP028wO-73" edge="1">
          <mxGeometry relative="1" as="geometry">
            <Array as="points">
              <mxPoint x="280.88514539930554" y="1992" />
              <mxPoint x="279.2873806423611" y="2068" />
            </Array>
          </mxGeometry>
        </mxCell>
        <mxCell id="P9SKCXnRvYGnvvP028wO-45" value="NAT (post routing)&lt;div&gt;(44, 66, 64, 46)&lt;/div&gt;" style="whiteSpace=wrap;html=1;" parent="1" vertex="1">
          <mxGeometry x="220.88514539930554" y="1920" width="120" height="60" as="geometry" />
        </mxCell>
        <mxCell id="P9SKCXnRvYGnvvP028wO-53" style="edgeStyle=orthogonalEdgeStyle;rounded=0;orthogonalLoop=1;jettySize=auto;html=1;orthogonal=1;curved=1;noEdgeStyle=1;" parent="1" source="P9SKCXnRvYGnvvP028wO-52" target="P9SKCXnRvYGnvvP028wO-39" edge="1">
          <mxGeometry relative="1" as="geometry">
            <Array as="points">
              <mxPoint x="538.59375" y="1672" />
              <mxPoint x="538.59375" y="1748" />
            </Array>
          </mxGeometry>
        </mxCell>
        <mxCell id="P9SKCXnRvYGnvvP028wO-52" value="Push QinQ" style="whiteSpace=wrap;html=1;" parent="1" vertex="1">
          <mxGeometry x="478.59375" y="1600" width="120" height="60" as="geometry" />
        </mxCell>
        <mxCell id="P9SKCXnRvYGnvvP028wO-62" style="edgeStyle=orthogonalEdgeStyle;rounded=0;orthogonalLoop=1;jettySize=auto;html=1;entryX=0.5;entryY=0;entryDx=0;entryDy=0;orthogonal=1;curved=1;noEdgeStyle=1;" parent="1" source="P9SKCXnRvYGnvvP028wO-54" target="P9SKCXnRvYGnvvP028wO-41" edge="1">
          <mxGeometry relative="1" as="geometry">
            <Array as="points">
              <mxPoint x="117.5" y="1512" />
              <mxPoint x="248.33333333333334" y="1588" />
            </Array>
          </mxGeometry>
        </mxCell>
        <mxCell id="P9SKCXnRvYGnvvP028wO-66" style="edgeStyle=orthogonalEdgeStyle;rounded=0;orthogonalLoop=1;jettySize=auto;html=1;orthogonal=1;entryX=0.5;entryY=0;entryDx=0;entryDy=0;curved=1;noEdgeStyle=1;" parent="1" source="P9SKCXnRvYGnvvP028wO-54" target="P9SKCXnRvYGnvvP028wO-44" edge="1">
          <mxGeometry relative="1" as="geometry">
            <mxPoint x="387" y="1760" as="targetPoint" />
            <Array as="points">
              <mxPoint x="62.5" y="1512" />
              <mxPoint x="195" y="1550" />
              <mxPoint x="195" y="1710" />
              <mxPoint x="262.08067491319446" y="1746" />
            </Array>
          </mxGeometry>
        </mxCell>
        <mxCell id="P9SKCXnRvYGnvvP028wO-54" value="TCP" style="whiteSpace=wrap;html=1;" parent="1" vertex="1">
          <mxGeometry x="30" y="1440" width="120" height="60" as="geometry" />
        </mxCell>
        <mxCell id="P9SKCXnRvYGnvvP028wO-63" style="edgeStyle=orthogonalEdgeStyle;rounded=0;orthogonalLoop=1;jettySize=auto;html=1;orthogonal=1;curved=1;noEdgeStyle=1;" parent="1" source="P9SKCXnRvYGnvvP028wO-55" target="P9SKCXnRvYGnvvP028wO-41" edge="1">
          <mxGeometry relative="1" as="geometry">
            <Array as="points">
              <mxPoint x="212.5" y="1512" />
              <mxPoint x="285" y="1586" />
            </Array>
          </mxGeometry>
        </mxCell>
        <mxCell id="P9SKCXnRvYGnvvP028wO-67" style="edgeStyle=orthogonalEdgeStyle;rounded=0;orthogonalLoop=1;jettySize=auto;html=1;orthogonal=1;entryX=0.5;entryY=0;entryDx=0;entryDy=0;curved=1;noEdgeStyle=1;" parent="1" source="P9SKCXnRvYGnvvP028wO-55" target="P9SKCXnRvYGnvvP028wO-44" edge="1">
          <mxGeometry relative="1" as="geometry">
            <mxPoint x="420" y="1760" as="targetPoint" />
            <Array as="points">
              <mxPoint x="267.5" y="1512" />
              <mxPoint x="375" y="1550" />
              <mxPoint x="375" y="1710" />
              <mxPoint x="306.08067491319446" y="1746" />
            </Array>
          </mxGeometry>
        </mxCell>
        <mxCell id="P9SKCXnRvYGnvvP028wO-55" value="UDP" style="whiteSpace=wrap;html=1;" parent="1" vertex="1">
          <mxGeometry x="180" y="1440" width="120" height="60" as="geometry" />
        </mxCell>
        <mxCell id="P9SKCXnRvYGnvvP028wO-64" style="edgeStyle=orthogonalEdgeStyle;rounded=0;orthogonalLoop=1;jettySize=auto;html=1;entryX=0.5;entryY=0;entryDx=0;entryDy=0;orthogonal=1;curved=1;noEdgeStyle=1;" parent="1" source="P9SKCXnRvYGnvvP028wO-56" target="P9SKCXnRvYGnvvP028wO-41" edge="1">
          <mxGeometry relative="1" as="geometry">
            <Array as="points">
              <mxPoint x="362.5" y="1512" />
              <mxPoint x="321.6666666666667" y="1588" />
            </Array>
          </mxGeometry>
        </mxCell>
        <mxCell id="P9SKCXnRvYGnvvP028wO-68" style="edgeStyle=orthogonalEdgeStyle;rounded=0;orthogonalLoop=1;jettySize=auto;html=1;entryX=0.75;entryY=0;entryDx=0;entryDy=0;orthogonal=1;curved=1;noEdgeStyle=1;" parent="1" source="P9SKCXnRvYGnvvP028wO-56" target="P9SKCXnRvYGnvvP028wO-44" edge="1">
          <mxGeometry relative="1" as="geometry">
            <Array as="points">
              <mxPoint x="417.5" y="1512" />
              <mxPoint x="405" y="1550" />
              <mxPoint x="405" y="1710" />
              <mxPoint x="328.08067491319446" y="1748" />
            </Array>
          </mxGeometry>
        </mxCell>
        <mxCell id="P9SKCXnRvYGnvvP028wO-56" value="SCTP" style="whiteSpace=wrap;html=1;" parent="1" vertex="1">
          <mxGeometry x="330" y="1440" width="120" height="60" as="geometry" />
        </mxCell>
        <mxCell id="P9SKCXnRvYGnvvP028wO-65" style="edgeStyle=orthogonalEdgeStyle;rounded=0;orthogonalLoop=1;jettySize=auto;html=1;entryX=0.25;entryY=0;entryDx=0;entryDy=0;orthogonal=1;curved=1;noEdgeStyle=1;" parent="1" source="P9SKCXnRvYGnvvP028wO-57" target="P9SKCXnRvYGnvvP028wO-44" edge="1">
          <mxGeometry relative="1" as="geometry">
            <Array as="points">
              <mxPoint x="105" y="1672" />
              <mxPoint x="240.08067491319446" y="1748" />
            </Array>
          </mxGeometry>
        </mxCell>
        <mxCell id="P9SKCXnRvYGnvvP028wO-57" value="other" style="whiteSpace=wrap;html=1;" parent="1" vertex="1">
          <mxGeometry x="45" y="1600" width="120" height="60" as="geometry" />
        </mxCell>
        <mxCell id="P9SKCXnRvYGnvvP028wO-76" value="" style="edgeStyle=orthogonalEdgeStyle;rounded=0;orthogonalLoop=1;jettySize=auto;html=1;orthogonal=1;curved=1;noEdgeStyle=1;" parent="1" source="P9SKCXnRvYGnvvP028wO-73" target="P9SKCXnRvYGnvvP028wO-75" edge="1">
          <mxGeometry relative="1" as="geometry">
            <Array as="points">
              <mxPoint x="279.2873806423611" y="2152" />
              <mxPoint x="279.2873806423611" y="2228" />
            </Array>
          </mxGeometry>
        </mxCell>
        <mxCell id="P9SKCXnRvYGnvvP028wO-73" value="Encap / egress marking" style="whiteSpace=wrap;html=1;" parent="1" vertex="1">
          <mxGeometry x="219.2873806423611" y="2080" width="120" height="60" as="geometry" />
        </mxCell>
        <mxCell id="P9SKCXnRvYGnvvP028wO-75" value="queue" style="whiteSpace=wrap;html=1;" parent="1" vertex="1">
          <mxGeometry x="219.2873806423611" y="2240" width="120" height="60" as="geometry" />
        </mxCell>
      </root>
    </mxGraphModel>
  </diagram>
</mxfile>
